<mxfile host="Electron" agent="Mozilla/5.0 (Macintosh; Intel Mac OS X 10_15_7) AppleWebKit/537.36 (KHTML, like Gecko) draw.io/24.7.17 Chrome/128.0.6613.36 Electron/32.0.1 Safari/537.36" version="24.7.17">
  <diagram name="Page-1" id="KLtd4MFQh9ZuT6rouaQ0">
    <mxGraphModel dx="1224" dy="746" grid="1" gridSize="10" guides="1" tooltips="1" connect="1" arrows="1" fold="1" page="1" pageScale="1" pageWidth="850" pageHeight="1100" math="0" shadow="0">
      <root>
        <mxCell id="0" />
        <mxCell id="1" parent="0" />
        <mxCell id="6oquI3iziqroKtysEFZ_-6" style="rounded=0;orthogonalLoop=1;jettySize=auto;html=1;exitX=1;exitY=1;exitDx=0;exitDy=0;strokeColor=none;" parent="1" source="6oquI3iziqroKtysEFZ_-95" edge="1">
          <mxGeometry relative="1" as="geometry">
            <mxPoint x="651" y="487" as="targetPoint" />
            <mxPoint x="761" y="305" as="sourcePoint" />
          </mxGeometry>
        </mxCell>
        <mxCell id="lL0XIrcGaY90vHGLS-17-4" style="edgeStyle=orthogonalEdgeStyle;rounded=0;orthogonalLoop=1;jettySize=auto;html=1;exitX=0.5;exitY=1;exitDx=0;exitDy=0;entryX=0.5;entryY=0;entryDx=0;entryDy=0;" parent="1" source="6oquI3iziqroKtysEFZ_-29" target="6oquI3iziqroKtysEFZ_-83" edge="1">
          <mxGeometry relative="1" as="geometry" />
        </mxCell>
        <mxCell id="6oquI3iziqroKtysEFZ_-29" value="&lt;b&gt;&amp;nbsp; &amp;nbsp; &amp;nbsp; &amp;nbsp; Diagnosis&lt;/b&gt;: &amp;nbsp; &amp;nbsp; &amp;nbsp; &amp;nbsp; acute bacterial rhinosinusitis" style="rounded=1;whiteSpace=wrap;html=1;align=center;" parent="1" vertex="1">
          <mxGeometry x="437.5" y="10" width="120" height="60" as="geometry" />
        </mxCell>
        <mxCell id="lL0XIrcGaY90vHGLS-17-32" style="edgeStyle=orthogonalEdgeStyle;rounded=0;orthogonalLoop=1;jettySize=auto;html=1;exitX=0;exitY=0.5;exitDx=0;exitDy=0;entryX=1;entryY=0.5;entryDx=0;entryDy=0;" parent="1" source="6oquI3iziqroKtysEFZ_-83" target="6oquI3iziqroKtysEFZ_-84" edge="1">
          <mxGeometry relative="1" as="geometry" />
        </mxCell>
        <mxCell id="lL0XIrcGaY90vHGLS-17-33" style="edgeStyle=orthogonalEdgeStyle;rounded=0;orthogonalLoop=1;jettySize=auto;html=1;exitX=1;exitY=0.5;exitDx=0;exitDy=0;" parent="1" source="6oquI3iziqroKtysEFZ_-83" target="6oquI3iziqroKtysEFZ_-85" edge="1">
          <mxGeometry relative="1" as="geometry" />
        </mxCell>
        <mxCell id="6oquI3iziqroKtysEFZ_-83" value="Is there suspicion for complications?" style="rhombus;whiteSpace=wrap;html=1;" parent="1" vertex="1">
          <mxGeometry x="425" y="116" width="145" height="134" as="geometry" />
        </mxCell>
        <mxCell id="lL0XIrcGaY90vHGLS-17-11" style="edgeStyle=orthogonalEdgeStyle;rounded=0;orthogonalLoop=1;jettySize=auto;html=1;exitX=0;exitY=0.5;exitDx=0;exitDy=0;entryX=1;entryY=0.5;entryDx=0;entryDy=0;" parent="1" source="6oquI3iziqroKtysEFZ_-84" target="6oquI3iziqroKtysEFZ_-91" edge="1">
          <mxGeometry relative="1" as="geometry" />
        </mxCell>
        <mxCell id="6oquI3iziqroKtysEFZ_-84" value="yes" style="rounded=1;whiteSpace=wrap;html=1;" parent="1" vertex="1">
          <mxGeometry x="331.69" y="168" width="50" height="30" as="geometry" />
        </mxCell>
        <mxCell id="6oquI3iziqroKtysEFZ_-85" value="no" style="rounded=1;whiteSpace=wrap;html=1;" parent="1" vertex="1">
          <mxGeometry x="602.5" y="168" width="50" height="30" as="geometry" />
        </mxCell>
        <mxCell id="6oquI3iziqroKtysEFZ_-91" value="&lt;div style=&quot;font-size: 11px;&quot;&gt;&lt;font style=&quot;font-size: 11px;&quot;&gt;Refer to urgent care.&amp;nbsp;&lt;/font&gt;&lt;/div&gt;&lt;div style=&quot;font-size: 11px;&quot;&gt;&lt;font style=&quot;font-size: 11px;&quot;&gt;Consider the need for hospitalization&lt;/font&gt;&lt;/div&gt;&lt;font style=&quot;font-size: 11px;&quot;&gt;Order imaging exam and manage accordingly&lt;/font&gt;" style="whiteSpace=wrap;html=1;aspect=fixed;" parent="1" vertex="1">
          <mxGeometry x="105.75" y="127.5" width="111" height="111" as="geometry" />
        </mxCell>
        <mxCell id="lL0XIrcGaY90vHGLS-17-40" style="edgeStyle=orthogonalEdgeStyle;rounded=0;orthogonalLoop=1;jettySize=auto;html=1;exitX=0.5;exitY=1;exitDx=0;exitDy=0;entryX=0.5;entryY=0;entryDx=0;entryDy=0;" parent="1" source="6oquI3iziqroKtysEFZ_-94" target="6oquI3iziqroKtysEFZ_-95" edge="1">
          <mxGeometry relative="1" as="geometry" />
        </mxCell>
        <mxCell id="lL0XIrcGaY90vHGLS-17-98" style="rounded=0;orthogonalLoop=1;jettySize=auto;html=1;exitX=0;exitY=0;exitDx=0;exitDy=0;entryX=1;entryY=0.5;entryDx=0;entryDy=0;" parent="1" source="6oquI3iziqroKtysEFZ_-94" target="6oquI3iziqroKtysEFZ_-96" edge="1">
          <mxGeometry relative="1" as="geometry" />
        </mxCell>
        <mxCell id="6oquI3iziqroKtysEFZ_-94" value="Is the patient eligible&lt;div&gt;&amp;nbsp;for watchful waiting?&lt;/div&gt;" style="rhombus;whiteSpace=wrap;html=1;" parent="1" vertex="1">
          <mxGeometry x="685" y="300" width="160" height="110" as="geometry" />
        </mxCell>
        <mxCell id="lL0XIrcGaY90vHGLS-17-50" style="edgeStyle=orthogonalEdgeStyle;rounded=0;orthogonalLoop=1;jettySize=auto;html=1;exitX=0;exitY=0.5;exitDx=0;exitDy=0;entryX=1;entryY=0.5;entryDx=0;entryDy=0;" parent="1" source="6oquI3iziqroKtysEFZ_-96" target="l2N7j59_v2V8E63CawsU-12" edge="1">
          <mxGeometry relative="1" as="geometry">
            <Array as="points">
              <mxPoint x="543" y="305" />
            </Array>
          </mxGeometry>
        </mxCell>
        <mxCell id="6oquI3iziqroKtysEFZ_-96" value="no" style="rounded=1;whiteSpace=wrap;html=1;" parent="1" vertex="1">
          <mxGeometry x="542.5" y="300" width="50" height="30" as="geometry" />
        </mxCell>
        <mxCell id="lL0XIrcGaY90vHGLS-17-38" style="edgeStyle=orthogonalEdgeStyle;rounded=0;orthogonalLoop=1;jettySize=auto;html=1;exitX=0.5;exitY=1;exitDx=0;exitDy=0;entryX=0.5;entryY=0;entryDx=0;entryDy=0;" parent="1" source="6oquI3iziqroKtysEFZ_-99" target="6oquI3iziqroKtysEFZ_-94" edge="1">
          <mxGeometry relative="1" as="geometry" />
        </mxCell>
        <mxCell id="6oquI3iziqroKtysEFZ_-99" value="&lt;div style=&quot;font-size: 11px;&quot;&gt;&lt;span style=&quot;background-color: initial;&quot;&gt;Prescribe symptomatics&lt;/span&gt;&lt;br&gt;&lt;/div&gt;&lt;div style=&quot;font-size: 11px;&quot;&gt;&lt;font style=&quot;font-size: 11px;&quot;&gt;(analgesics, antipiretics) and nasal irrigation with 0.9% saline.&amp;nbsp;&lt;/font&gt;&lt;span style=&quot;text-align: start; background-color: initial;&quot;&gt;Consider intranasal corticosteroids for symptomatic relief, such as Budesonide 50mcg/spray,&amp;nbsp;&lt;/span&gt;&lt;span style=&quot;background-color: initial; text-align: start;&quot;&gt;Mometasone 50cmg/spray, Fluticasone furoate 27.5mcg/spray (all 1-2 sprays/nostril q12h for 2 weeks)&lt;/span&gt;&lt;/div&gt;" style="whiteSpace=wrap;html=1;aspect=fixed;align=center;" parent="1" vertex="1">
          <mxGeometry x="680" y="120" width="160" height="160" as="geometry" />
        </mxCell>
        <mxCell id="lL0XIrcGaY90vHGLS-17-42" style="edgeStyle=orthogonalEdgeStyle;rounded=0;orthogonalLoop=1;jettySize=auto;html=1;exitX=0.5;exitY=1;exitDx=0;exitDy=0;entryX=0.5;entryY=0;entryDx=0;entryDy=0;" parent="1" source="l2N7j59_v2V8E63CawsU-1" target="l2N7j59_v2V8E63CawsU-3" edge="1">
          <mxGeometry relative="1" as="geometry" />
        </mxCell>
        <mxCell id="lL0XIrcGaY90vHGLS-17-99" style="rounded=0;orthogonalLoop=1;jettySize=auto;html=1;exitX=0;exitY=0;exitDx=0;exitDy=0;entryX=1;entryY=0.5;entryDx=0;entryDy=0;" parent="1" source="l2N7j59_v2V8E63CawsU-1" target="l2N7j59_v2V8E63CawsU-2" edge="1">
          <mxGeometry relative="1" as="geometry" />
        </mxCell>
        <mxCell id="l2N7j59_v2V8E63CawsU-1" value="&lt;font style=&quot;font-size: 11px;&quot;&gt;Getting worse or&amp;nbsp;&lt;/font&gt;&lt;span style=&quot;font-size: 11px; background-color: initial;&quot;&gt;not&amp;nbsp;&lt;/span&gt;&lt;div&gt;&lt;span style=&quot;font-size: 11px; background-color: initial;&quot;&gt;improving after 7 days?&lt;/span&gt;&lt;/div&gt;" style="rhombus;whiteSpace=wrap;html=1;" parent="1" vertex="1">
          <mxGeometry x="685" y="530" width="160" height="134" as="geometry" />
        </mxCell>
        <mxCell id="lL0XIrcGaY90vHGLS-17-49" style="rounded=0;orthogonalLoop=1;jettySize=auto;html=1;exitX=0.5;exitY=0;exitDx=0;exitDy=0;entryX=1;entryY=0.5;entryDx=0;entryDy=0;" parent="1" source="l2N7j59_v2V8E63CawsU-2" target="l2N7j59_v2V8E63CawsU-12" edge="1">
          <mxGeometry relative="1" as="geometry" />
        </mxCell>
        <mxCell id="l2N7j59_v2V8E63CawsU-2" value="yes" style="rounded=1;whiteSpace=wrap;html=1;" parent="1" vertex="1">
          <mxGeometry x="542.5" y="360" width="50" height="30" as="geometry" />
        </mxCell>
        <mxCell id="lL0XIrcGaY90vHGLS-17-43" style="edgeStyle=orthogonalEdgeStyle;rounded=0;orthogonalLoop=1;jettySize=auto;html=1;exitX=0.5;exitY=1;exitDx=0;exitDy=0;entryX=0.5;entryY=0;entryDx=0;entryDy=0;" parent="1" source="l2N7j59_v2V8E63CawsU-3" target="l2N7j59_v2V8E63CawsU-6" edge="1">
          <mxGeometry relative="1" as="geometry" />
        </mxCell>
        <mxCell id="l2N7j59_v2V8E63CawsU-3" value="no" style="rounded=1;whiteSpace=wrap;html=1;" parent="1" vertex="1">
          <mxGeometry x="740" y="731" width="50" height="30" as="geometry" />
        </mxCell>
        <mxCell id="l2N7j59_v2V8E63CawsU-6" value="Keep current management until resolution" style="rounded=0;whiteSpace=wrap;html=1;" parent="1" vertex="1">
          <mxGeometry x="705" y="780" width="120" height="60" as="geometry" />
        </mxCell>
        <mxCell id="l2N7j59_v2V8E63CawsU-20" style="rounded=0;orthogonalLoop=1;jettySize=auto;html=1;exitX=0;exitY=1;exitDx=0;exitDy=0;entryX=0.5;entryY=0;entryDx=0;entryDy=0;" parent="1" source="l2N7j59_v2V8E63CawsU-12" target="l2N7j59_v2V8E63CawsU-15" edge="1">
          <mxGeometry relative="1" as="geometry" />
        </mxCell>
        <mxCell id="l2N7j59_v2V8E63CawsU-21" style="rounded=0;orthogonalLoop=1;jettySize=auto;html=1;exitX=1;exitY=1;exitDx=0;exitDy=0;entryX=0.5;entryY=0;entryDx=0;entryDy=0;" parent="1" source="l2N7j59_v2V8E63CawsU-12" target="l2N7j59_v2V8E63CawsU-16" edge="1">
          <mxGeometry relative="1" as="geometry" />
        </mxCell>
        <mxCell id="l2N7j59_v2V8E63CawsU-12" value="Is there severe infection in&lt;div&gt;need of hospitalization?&lt;/div&gt;" style="rhombus;whiteSpace=wrap;html=1;" parent="1" vertex="1">
          <mxGeometry x="225.5" y="220" width="169.5" height="170" as="geometry" />
        </mxCell>
        <mxCell id="lL0XIrcGaY90vHGLS-17-52" style="rounded=0;orthogonalLoop=1;jettySize=auto;html=1;exitX=0.5;exitY=1;exitDx=0;exitDy=0;entryX=0;entryY=0;entryDx=0;entryDy=0;fillColor=#d5e8d4;strokeColor=#82b366;" parent="1" source="l2N7j59_v2V8E63CawsU-15" target="l2N7j59_v2V8E63CawsU-17" edge="1">
          <mxGeometry relative="1" as="geometry" />
        </mxCell>
        <mxCell id="l2N7j59_v2V8E63CawsU-15" value="yes" style="rounded=1;whiteSpace=wrap;html=1;" parent="1" vertex="1">
          <mxGeometry x="185" y="380" width="50" height="30" as="geometry" />
        </mxCell>
        <mxCell id="l2N7j59_v2V8E63CawsU-25" style="rounded=0;orthogonalLoop=1;jettySize=auto;html=1;exitX=0;exitY=1;exitDx=0;exitDy=0;fillColor=#f8cecc;strokeColor=#b85450;" parent="1" source="l2N7j59_v2V8E63CawsU-16" target="l2N7j59_v2V8E63CawsU-17" edge="1">
          <mxGeometry relative="1" as="geometry" />
        </mxCell>
        <mxCell id="l2N7j59_v2V8E63CawsU-16" value="no" style="rounded=1;whiteSpace=wrap;html=1;" parent="1" vertex="1">
          <mxGeometry x="395" y="380" width="50" height="30" as="geometry" />
        </mxCell>
        <mxCell id="l2N7j59_v2V8E63CawsU-30" style="rounded=0;orthogonalLoop=1;jettySize=auto;html=1;exitX=0;exitY=0.5;exitDx=0;exitDy=0;entryX=0.5;entryY=0;entryDx=0;entryDy=0;fillColor=#d5e8d4;strokeColor=#82b366;" parent="1" source="l2N7j59_v2V8E63CawsU-17" target="l2N7j59_v2V8E63CawsU-29" edge="1">
          <mxGeometry relative="1" as="geometry" />
        </mxCell>
        <mxCell id="l2N7j59_v2V8E63CawsU-31" style="rounded=0;orthogonalLoop=1;jettySize=auto;html=1;entryX=0.5;entryY=0;entryDx=0;entryDy=0;exitX=0;exitY=0.5;exitDx=0;exitDy=0;fillColor=#d5e8d4;strokeColor=#82b366;" parent="1" source="l2N7j59_v2V8E63CawsU-17" target="l2N7j59_v2V8E63CawsU-28" edge="1">
          <mxGeometry relative="1" as="geometry">
            <mxPoint x="321" y="1291" as="targetPoint" />
            <mxPoint x="100" y="501" as="sourcePoint" />
          </mxGeometry>
        </mxCell>
        <mxCell id="l2N7j59_v2V8E63CawsU-32" style="rounded=0;orthogonalLoop=1;jettySize=auto;html=1;exitX=1;exitY=0.5;exitDx=0;exitDy=0;entryX=0.5;entryY=0;entryDx=0;entryDy=0;fillColor=#f8cecc;strokeColor=#b85450;" parent="1" source="l2N7j59_v2V8E63CawsU-17" target="l2N7j59_v2V8E63CawsU-26" edge="1">
          <mxGeometry relative="1" as="geometry">
            <mxPoint x="481" y="1291" as="targetPoint" />
          </mxGeometry>
        </mxCell>
        <mxCell id="l2N7j59_v2V8E63CawsU-33" style="rounded=0;orthogonalLoop=1;jettySize=auto;html=1;exitX=1;exitY=0.5;exitDx=0;exitDy=0;entryX=0.5;entryY=0;entryDx=0;entryDy=0;fillColor=#f8cecc;strokeColor=#b85450;" parent="1" source="l2N7j59_v2V8E63CawsU-17" target="l2N7j59_v2V8E63CawsU-27" edge="1">
          <mxGeometry relative="1" as="geometry" />
        </mxCell>
        <mxCell id="l2N7j59_v2V8E63CawsU-17" value="beta-lactam allergy?" style="rhombus;whiteSpace=wrap;html=1;" parent="1" vertex="1">
          <mxGeometry x="246.75" y="410" width="127" height="110" as="geometry" />
        </mxCell>
        <mxCell id="lL0XIrcGaY90vHGLS-17-85" style="edgeStyle=orthogonalEdgeStyle;rounded=0;orthogonalLoop=1;jettySize=auto;html=1;exitX=0.5;exitY=1;exitDx=0;exitDy=0;entryX=0.5;entryY=0;entryDx=0;entryDy=0;" parent="1" source="l2N7j59_v2V8E63CawsU-26" target="l2N7j59_v2V8E63CawsU-40" edge="1">
          <mxGeometry relative="1" as="geometry" />
        </mxCell>
        <mxCell id="l2N7j59_v2V8E63CawsU-26" value="yes" style="rounded=1;whiteSpace=wrap;html=1;" parent="1" vertex="1">
          <mxGeometry x="349.55" y="550" width="50" height="30" as="geometry" />
        </mxCell>
        <mxCell id="lL0XIrcGaY90vHGLS-17-86" style="edgeStyle=orthogonalEdgeStyle;rounded=0;orthogonalLoop=1;jettySize=auto;html=1;exitX=0.5;exitY=1;exitDx=0;exitDy=0;entryX=0.5;entryY=0;entryDx=0;entryDy=0;" parent="1" source="l2N7j59_v2V8E63CawsU-27" target="l2N7j59_v2V8E63CawsU-41" edge="1">
          <mxGeometry relative="1" as="geometry" />
        </mxCell>
        <mxCell id="l2N7j59_v2V8E63CawsU-27" value="no" style="rounded=1;whiteSpace=wrap;html=1;" parent="1" vertex="1">
          <mxGeometry x="540" y="548" width="50" height="30" as="geometry" />
        </mxCell>
        <mxCell id="l2N7j59_v2V8E63CawsU-37" style="rounded=0;orthogonalLoop=1;jettySize=auto;html=1;exitX=0.5;exitY=1;exitDx=0;exitDy=0;entryX=0.5;entryY=0;entryDx=0;entryDy=0;" parent="1" source="l2N7j59_v2V8E63CawsU-28" target="l2N7j59_v2V8E63CawsU-38" edge="1">
          <mxGeometry relative="1" as="geometry">
            <mxPoint x="308" y="1461" as="targetPoint" />
          </mxGeometry>
        </mxCell>
        <mxCell id="l2N7j59_v2V8E63CawsU-28" value="yes" style="rounded=1;whiteSpace=wrap;html=1;" parent="1" vertex="1">
          <mxGeometry x="50.5" y="552" width="50" height="30" as="geometry" />
        </mxCell>
        <mxCell id="l2N7j59_v2V8E63CawsU-36" style="rounded=0;orthogonalLoop=1;jettySize=auto;html=1;exitX=0.5;exitY=1;exitDx=0;exitDy=0;entryX=0.5;entryY=0;entryDx=0;entryDy=0;" parent="1" source="l2N7j59_v2V8E63CawsU-29" target="l2N7j59_v2V8E63CawsU-39" edge="1">
          <mxGeometry relative="1" as="geometry">
            <mxPoint x="390.2222222222222" y="1461" as="targetPoint" />
          </mxGeometry>
        </mxCell>
        <mxCell id="l2N7j59_v2V8E63CawsU-29" value="no" style="rounded=1;whiteSpace=wrap;html=1;" parent="1" vertex="1">
          <mxGeometry x="196.76" y="548" width="50" height="30" as="geometry" />
        </mxCell>
        <mxCell id="l2N7j59_v2V8E63CawsU-43" style="rounded=0;orthogonalLoop=1;jettySize=auto;html=1;exitX=0.5;exitY=1;exitDx=0;exitDy=0;entryX=0;entryY=0.5;entryDx=0;entryDy=0;" parent="1" source="l2N7j59_v2V8E63CawsU-38" target="l2N7j59_v2V8E63CawsU-42" edge="1">
          <mxGeometry relative="1" as="geometry" />
        </mxCell>
        <mxCell id="l2N7j59_v2V8E63CawsU-38" value="&lt;font style=&quot;font-size: 10px;&quot;&gt;&lt;font style=&quot;font-size: 10px;&quot;&gt;Consider Levofloxacin 750mg IV 24/24h 5-7days.&amp;nbsp;&lt;/font&gt;&lt;/font&gt;&lt;div&gt;&lt;font style=&quot;font-size: 10px;&quot;&gt;&lt;font style=&quot;font-size: 10px;&quot;&gt;I&lt;/font&gt;&lt;span style=&quot;text-align: start;&quot;&gt;f non-type I hypersensitivity to penicillin and&amp;nbsp;&lt;/span&gt;&lt;span style=&quot;text-align: start;&quot;&gt;able to tolerate cephalosporins,&lt;/span&gt;&lt;span style=&quot;text-align: start;&quot;&gt;&amp;nbsp;&lt;/span&gt;&lt;/font&gt;&lt;/div&gt;&lt;div&gt;&lt;font style=&quot;font-size: 10px;&quot;&gt;&lt;span style=&quot;text-align: start;&quot;&gt;consider them. C&lt;/span&gt;&lt;/font&gt;&lt;span style=&quot;font-size: 10px; background-color: initial;&quot;&gt;heck for bacterial resistance, consider need of imaging and adjust antibiotic if needed. Reassess for potential complications.&lt;/span&gt;&lt;/div&gt;" style="rounded=0;whiteSpace=wrap;html=1;" parent="1" vertex="1">
          <mxGeometry x="7" y="614" width="137" height="145" as="geometry" />
        </mxCell>
        <mxCell id="l2N7j59_v2V8E63CawsU-39" value="&lt;div style=&quot;font-size: 10px;&quot;&gt;&lt;font style=&quot;font-size: 10px;&quot;&gt;&lt;span style=&quot;background-color: initial;&quot;&gt;&lt;br&gt;&lt;/span&gt;&lt;/font&gt;&lt;/div&gt;&lt;div style=&quot;font-size: 10px;&quot;&gt;&lt;span style=&quot;background-color: initial;&quot;&gt;Consider&lt;/span&gt;&lt;font style=&quot;background-color: initial;&quot;&gt;&amp;nbsp;5-7 days IV&amp;nbsp;&lt;/font&gt;&lt;span style=&quot;background-color: initial;&quot;&gt;beta lactam, such as&amp;nbsp;&lt;/span&gt;&lt;span style=&quot;background-color: initial;&quot;&gt;ampicilin-sulbactam&amp;nbsp;&lt;/span&gt;&lt;span style=&quot;background-color: initial;&quot;&gt;1.5-3g q6h or&lt;/span&gt;&lt;/div&gt;&lt;div style=&quot;font-size: 10px;&quot;&gt;&lt;span style=&quot;background-color: initial;&quot;&gt;&lt;font style=&quot;font-size: 10px;&quot;&gt;ceftriaxone&amp;nbsp;&lt;/font&gt;&lt;/span&gt;&lt;span style=&quot;background-color: initial;&quot;&gt;1-2g&amp;nbsp;&lt;/span&gt;&lt;span style=&quot;background-color: initial;&quot;&gt;q12h or q24h or&amp;nbsp;&lt;/span&gt;&lt;font style=&quot;background-color: initial;&quot;&gt;cefotaxime 2g q6h.&lt;/font&gt;&lt;span style=&quot;background-color: initial;&quot;&gt;&amp;nbsp;&lt;/span&gt;&lt;/div&gt;&lt;div style=&quot;font-size: 10px;&quot;&gt;&lt;div style=&quot;&quot;&gt;&lt;font style=&quot;font-size: 10px;&quot;&gt;C&lt;span style=&quot;background-color: initial;&quot;&gt;heck for bacterial resistance, consider need of imaging and adjust antibiotic if needed.&lt;/span&gt;&lt;/font&gt;&lt;/div&gt;&lt;div style=&quot;&quot;&gt;&lt;font style=&quot;font-size: 10px;&quot;&gt;&lt;span style=&quot;background-color: initial;&quot;&gt;Reassess for potential complications.&lt;/span&gt;&lt;/font&gt;&lt;/div&gt;&lt;div style=&quot;&quot;&gt;&lt;div style=&quot;&quot;&gt;&lt;div style=&quot;text-align: justify;&quot;&gt;&lt;br&gt;&lt;/div&gt;&lt;/div&gt;&lt;/div&gt;&lt;/div&gt;" style="rounded=0;whiteSpace=wrap;html=1;" parent="1" vertex="1">
          <mxGeometry x="150.13" y="613.62" width="143.25" height="144.75" as="geometry" />
        </mxCell>
        <mxCell id="l2N7j59_v2V8E63CawsU-46" style="rounded=0;orthogonalLoop=1;jettySize=auto;html=1;exitX=0.5;exitY=1;exitDx=0;exitDy=0;entryX=1;entryY=0;entryDx=0;entryDy=0;" parent="1" source="l2N7j59_v2V8E63CawsU-40" target="l2N7j59_v2V8E63CawsU-42" edge="1">
          <mxGeometry relative="1" as="geometry" />
        </mxCell>
        <mxCell id="l2N7j59_v2V8E63CawsU-40" value="&lt;div style=&quot;font-size: 8px;&quot;&gt;&lt;font style=&quot;font-size: 8px;&quot;&gt;&lt;span style=&quot;background-color: initial;&quot;&gt;Consider oral respiratory quinolone&lt;/span&gt;&lt;br&gt;&lt;/font&gt;&lt;/div&gt;&lt;div style=&quot;font-size: 8px;&quot;&gt;&lt;font style=&quot;font-size: 8px;&quot;&gt;&lt;font style=&quot;font-size: 8px;&quot;&gt;&lt;span style=&quot;text-align: start; background-color: initial;&quot;&gt;&lt;font style=&quot;font-size: 8px;&quot; face=&quot;Helvetica&quot;&gt;(Levofloxacin 750mg or Moxifloxacin 400mg&amp;nbsp;&lt;/font&gt;&lt;/span&gt;&lt;/font&gt;&lt;span style=&quot;background-color: initial; text-align: start;&quot;&gt;q24h 5-7 days);&amp;nbsp;&lt;/span&gt;&lt;span style=&quot;background-color: initial; text-align: start;&quot;&gt;&lt;font style=&quot;font-size: 8px;&quot; face=&quot;Helvetica&quot;&gt;or, oral&amp;nbsp;&lt;/font&gt;&lt;/span&gt;&lt;span style=&quot;background-color: initial; text-align: start;&quot;&gt;&lt;font style=&quot;font-size: 8px;&quot; face=&quot;Helvetica&quot;&gt;Doxycycline 7 days 100mg q12h or 200mg q24h, but contraindicated if pregnancy.&amp;nbsp;&lt;/font&gt;&lt;/span&gt;&lt;span style=&quot;background-color: initial; text-align: start;&quot;&gt;If able to tolerate cephalosporins/non-type I hypersensitivity to penicillin, consider combination therapy with a third-generation one (eg.: cefixime 400mg q24h or cefpodozime 200mg q12h) with or without clindamycin 300mg q6h&lt;/span&gt;&lt;/font&gt;&lt;/div&gt;" style="rounded=0;whiteSpace=wrap;html=1;" parent="1" vertex="1">
          <mxGeometry x="302.05" y="611" width="145" height="150" as="geometry" />
        </mxCell>
        <mxCell id="l2N7j59_v2V8E63CawsU-47" style="rounded=0;orthogonalLoop=1;jettySize=auto;html=1;exitX=0.5;exitY=1;exitDx=0;exitDy=0;entryX=1;entryY=0.5;entryDx=0;entryDy=0;" parent="1" source="l2N7j59_v2V8E63CawsU-41" target="l2N7j59_v2V8E63CawsU-42" edge="1">
          <mxGeometry relative="1" as="geometry">
            <mxPoint x="470" y="1091" as="targetPoint" />
          </mxGeometry>
        </mxCell>
        <mxCell id="l2N7j59_v2V8E63CawsU-41" value="&lt;p style=&quot;margin: 0in; font-size: 10px;&quot; class=&quot;MsoNormal&quot;&gt;&lt;font style=&quot;background-color: initial; font-size: 8px;&quot;&gt;&lt;font face=&quot;Helvetica&quot;&gt;&lt;br&gt;&lt;/font&gt;&lt;/font&gt;&lt;/p&gt;&lt;p style=&quot;margin: 0in; font-size: 10px;&quot; class=&quot;MsoNormal&quot;&gt;&lt;font style=&quot;background-color: initial; font-size: 8px;&quot;&gt;&lt;font face=&quot;Helvetica&quot;&gt;Consider 5-7 days of oral a&lt;/font&gt;&lt;/font&gt;&lt;font style=&quot;background-color: initial; font-size: 8px;&quot;&gt;&lt;span style=&quot;text-indent: -0.25in; background-color: initial;&quot;&gt;&lt;font face=&quot;Helvetica&quot;&gt;moxicillin (&lt;/font&gt;&lt;/span&gt;&lt;/font&gt;&lt;span style=&quot;background-color: initial; font-size: 8px; text-indent: -0.25in;&quot;&gt;875mg q12h or 500mg q8h) or &lt;/span&gt;&lt;span style=&quot;background-color: initial; font-size: 8px; text-indent: -0.25in;&quot;&gt;&lt;font face=&quot;Helvetica&quot;&gt;amoxicillin + clavulanate* (875mg + 125mg q12h or 500 mg/125 mg q8h).&amp;nbsp;&lt;/font&gt;&lt;/span&gt;&lt;br&gt;&lt;/p&gt;&lt;p style=&quot;margin: 0in;&quot; class=&quot;MsoNormal&quot;&gt;&lt;span style=&quot;background-color: initial; text-indent: -24px; font-size: 8px;&quot;&gt;*&lt;/span&gt;&lt;span style=&quot;font-size: 7px; background-color: initial; text-indent: -24px;&quot;&gt;Prefer the latter when likely bacterial resistance, moderate/severe or prolonged/recurrent infection/symptoms, comorbidities,&amp;nbsp;&lt;/span&gt;&lt;span style=&quot;background-color: initial; font-size: 7px; text-indent: -24px;&quot;&gt;65yo+, immunocompromised,&amp;nbsp;&lt;/span&gt;&lt;span style=&quot;background-color: initial; font-size: 7px; text-indent: -24px;&quot;&gt;failed prior antibiotic therapy, breakthrough infection&amp;nbsp;&lt;/span&gt;&lt;span style=&quot;background-color: initial; font-size: 7px; text-indent: -24px;&quot;&gt;on prophylaxis, frontal/sphenoidal sinusitis.&amp;nbsp;&lt;/span&gt;&lt;/p&gt;&lt;p style=&quot;margin: 0in;&quot; class=&quot;MsoNormal&quot;&gt;&lt;span style=&quot;background-color: initial; font-size: 7px;&quot;&gt;If risk factors for pneumococcal resistance (&lt;/span&gt;&lt;span style=&quot;background-color: initial; font-size: 7px;&quot;&gt;high endemic area, recent hospitalization/antibiotic use,&amp;nbsp;&lt;/span&gt;&lt;span style=&quot;background-color: initial; font-size: 7px;&quot;&gt;severe case, 65yo+, immunocompromised&lt;/span&gt;&lt;span style=&quot;background-color: initial; font-size: 7px;&quot;&gt;)&lt;/span&gt;&lt;span style=&quot;background-color: initial; font-size: 7px;&quot;&gt;, consider high-dose&amp;nbsp; 2000mg/125 mg extended-release q12h 5-7 days&lt;/span&gt;&lt;/p&gt;&lt;p style=&quot;margin: 0in;&quot; class=&quot;MsoNormal&quot;&gt;&lt;br&gt;&lt;/p&gt;" style="rounded=0;whiteSpace=wrap;html=1;align=center;" parent="1" vertex="1">
          <mxGeometry x="450" y="610" width="230" height="150" as="geometry" />
        </mxCell>
        <mxCell id="lL0XIrcGaY90vHGLS-17-68" style="rounded=0;orthogonalLoop=1;jettySize=auto;html=1;exitX=0;exitY=1;exitDx=0;exitDy=0;entryX=1;entryY=0.5;entryDx=0;entryDy=0;" parent="1" source="l2N7j59_v2V8E63CawsU-42" target="l2N7j59_v2V8E63CawsU-48" edge="1">
          <mxGeometry relative="1" as="geometry" />
        </mxCell>
        <mxCell id="lL0XIrcGaY90vHGLS-17-71" style="rounded=0;orthogonalLoop=1;jettySize=auto;html=1;exitX=1;exitY=1;exitDx=0;exitDy=0;entryX=0;entryY=0.5;entryDx=0;entryDy=0;" parent="1" source="l2N7j59_v2V8E63CawsU-42" target="l2N7j59_v2V8E63CawsU-49" edge="1">
          <mxGeometry relative="1" as="geometry" />
        </mxCell>
        <mxCell id="l2N7j59_v2V8E63CawsU-42" value="&lt;div&gt;&lt;br&gt;&lt;/div&gt;Is patient clinically better?" style="rhombus;whiteSpace=wrap;html=1;" parent="1" vertex="1">
          <mxGeometry x="244.2" y="800" width="129.55" height="100" as="geometry" />
        </mxCell>
        <mxCell id="l2N7j59_v2V8E63CawsU-44" style="rounded=0;orthogonalLoop=1;jettySize=auto;html=1;exitX=0.5;exitY=1;exitDx=0;exitDy=0;entryX=0;entryY=0;entryDx=0;entryDy=0;" parent="1" source="l2N7j59_v2V8E63CawsU-39" target="l2N7j59_v2V8E63CawsU-42" edge="1">
          <mxGeometry relative="1" as="geometry" />
        </mxCell>
        <mxCell id="lL0XIrcGaY90vHGLS-17-70" style="edgeStyle=orthogonalEdgeStyle;rounded=0;orthogonalLoop=1;jettySize=auto;html=1;exitX=0.5;exitY=1;exitDx=0;exitDy=0;entryX=0.5;entryY=0;entryDx=0;entryDy=0;" parent="1" source="l2N7j59_v2V8E63CawsU-48" target="l2N7j59_v2V8E63CawsU-53" edge="1">
          <mxGeometry relative="1" as="geometry" />
        </mxCell>
        <mxCell id="l2N7j59_v2V8E63CawsU-48" value="yes" style="rounded=1;whiteSpace=wrap;html=1;" parent="1" vertex="1">
          <mxGeometry x="166.75" y="890" width="50" height="30" as="geometry" />
        </mxCell>
        <mxCell id="lL0XIrcGaY90vHGLS-17-72" style="edgeStyle=orthogonalEdgeStyle;rounded=0;orthogonalLoop=1;jettySize=auto;html=1;exitX=0.5;exitY=1;exitDx=0;exitDy=0;entryX=0.5;entryY=0;entryDx=0;entryDy=0;" parent="1" source="l2N7j59_v2V8E63CawsU-49" target="l2N7j59_v2V8E63CawsU-54" edge="1">
          <mxGeometry relative="1" as="geometry" />
        </mxCell>
        <mxCell id="l2N7j59_v2V8E63CawsU-49" value="no" style="rounded=1;whiteSpace=wrap;html=1;" parent="1" vertex="1">
          <mxGeometry x="400" y="890" width="50" height="30" as="geometry" />
        </mxCell>
        <mxCell id="l2N7j59_v2V8E63CawsU-53" value="&lt;div&gt;Keep symptomatics&lt;/div&gt;&lt;div&gt;(analgesics, antipiretics) and nasal irrigation with 0.9% saline until&amp;nbsp;&lt;/div&gt;&lt;div&gt;symptom resolution&lt;/div&gt;" style="rounded=0;whiteSpace=wrap;html=1;" parent="1" vertex="1">
          <mxGeometry x="116.74999999999999" y="950" width="150" height="130" as="geometry" />
        </mxCell>
        <mxCell id="l2N7j59_v2V8E63CawsU-54" value="&lt;div style=&quot;font-size: 11px;&quot;&gt;&lt;font style=&quot;font-size: 11px;&quot;&gt;&lt;br&gt;&lt;/font&gt;&lt;/div&gt;&lt;div style=&quot;font-size: 11px;&quot;&gt;&lt;font style=&quot;font-size: 11px;&quot;&gt;&lt;br&gt;&lt;/font&gt;&lt;/div&gt;&lt;div style=&quot;font-size: 11px;&quot;&gt;&lt;font style=&quot;font-size: 11px;&quot;&gt;&lt;br&gt;&lt;/font&gt;&lt;/div&gt;&lt;div style=&quot;font-size: 11px;&quot;&gt;&lt;font style=&quot;font-size: 11px;&quot;&gt;&lt;br&gt;&lt;/font&gt;&lt;/div&gt;&lt;div style=&quot;font-size: 11px;&quot;&gt;&lt;font style=&quot;font-size: 11px;&quot;&gt;&lt;span style=&quot;background-color: initial;&quot;&gt;Order imaging exam to assess for complications;&amp;nbsp;&lt;/span&gt;&lt;span style=&quot;background-color: initial;&quot;&gt;Consider changing antibiotic therapy, if possible, based on resistance profile.&amp;nbsp;&lt;/span&gt;&lt;span style=&quot;background-color: initial;&quot;&gt;Consider need of urgent care if not inpatient already.&amp;nbsp;&lt;/span&gt;&lt;span style=&quot;background-color: initial;&quot;&gt;Refer for ENT evaluation.&amp;nbsp;&lt;/span&gt;&lt;span style=&quot;background-color: initial;&quot;&gt;Re-consider differential diagnosis, c&lt;/span&gt;&lt;span style=&quot;background-color: initial;&quot;&gt;onsider fungal causes.&amp;nbsp;&lt;/span&gt;&lt;span style=&quot;background-color: initial;&quot;&gt;If recurrent, assess for&amp;nbsp;&lt;/span&gt;&lt;span style=&quot;background-color: initial;&quot;&gt;&lt;font style=&quot;font-size: 11px;&quot; face=&quot;Helvetica&quot;&gt;cystic fibrosis, immotile cilia disorders, ciliary dyskinesia, immune deficiency, prior history of sinus surgery, and anatomic abnormalities (eg, deviated nasal septum)&lt;/font&gt;&lt;/span&gt;&lt;span style=&quot;background-color: initial; font-family: TimesNewRomanPSMT;&quot;&gt;.&lt;/span&gt;&lt;/font&gt;&lt;/div&gt;&#x9;&#x9;&lt;font style=&quot;font-size: 11px;&quot;&gt;&lt;br&gt;&#x9;&lt;br&gt;&#x9;&lt;br&gt;&#x9;&#x9;&lt;/font&gt;&lt;div style=&quot;font-size: 11px;&quot;&gt;&lt;br&gt;&lt;/div&gt;" style="rounded=0;whiteSpace=wrap;html=1;" parent="1" vertex="1">
          <mxGeometry x="275" y="947" width="300" height="133" as="geometry" />
        </mxCell>
        <mxCell id="lL0XIrcGaY90vHGLS-17-13" value="" style="shape=table;startSize=0;container=1;collapsible=0;childLayout=tableLayout;" parent="1" vertex="1">
          <mxGeometry x="3" y="4" width="157" height="116" as="geometry" />
        </mxCell>
        <mxCell id="lL0XIrcGaY90vHGLS-17-14" value="" style="shape=tableRow;horizontal=0;startSize=0;swimlaneHead=0;swimlaneBody=0;strokeColor=inherit;top=0;left=0;bottom=0;right=0;collapsible=0;dropTarget=0;fillColor=none;points=[[0,0.5],[1,0.5]];portConstraint=eastwest;" parent="lL0XIrcGaY90vHGLS-17-13" vertex="1">
          <mxGeometry width="157" height="19" as="geometry" />
        </mxCell>
        <mxCell id="lL0XIrcGaY90vHGLS-17-15" value="&lt;b&gt;&lt;font style=&quot;font-size: 11px;&quot;&gt;Suspected complications&lt;/font&gt;&lt;/b&gt;" style="shape=partialRectangle;html=1;whiteSpace=wrap;connectable=0;strokeColor=inherit;overflow=hidden;fillColor=none;top=0;left=0;bottom=0;right=0;pointerEvents=1;" parent="lL0XIrcGaY90vHGLS-17-14" vertex="1">
          <mxGeometry width="157" height="19" as="geometry">
            <mxRectangle width="157" height="19" as="alternateBounds" />
          </mxGeometry>
        </mxCell>
        <mxCell id="lL0XIrcGaY90vHGLS-17-16" value="" style="shape=tableRow;horizontal=0;startSize=0;swimlaneHead=0;swimlaneBody=0;strokeColor=inherit;top=0;left=0;bottom=0;right=0;collapsible=0;dropTarget=0;fillColor=none;points=[[0,0.5],[1,0.5]];portConstraint=eastwest;" parent="lL0XIrcGaY90vHGLS-17-13" vertex="1">
          <mxGeometry y="19" width="157" height="29" as="geometry" />
        </mxCell>
        <mxCell id="lL0XIrcGaY90vHGLS-17-17" value="&lt;div style=&quot;font-size: 11px;&quot; title=&quot;Page 2&quot; class=&quot;page&quot;&gt;&lt;font style=&quot;font-size: 11px;&quot; face=&quot;Helvetica&quot;&gt;orbital&amp;nbsp;&lt;/font&gt;&lt;span style=&quot;background-color: initial;&quot;&gt;(eg.:&amp;nbsp;&lt;/span&gt;&lt;span style=&quot;background-color: initial;&quot;&gt;periorbital/orbital cellulitis or abscess)&lt;/span&gt;&lt;/div&gt;" style="shape=partialRectangle;html=1;whiteSpace=wrap;connectable=0;strokeColor=inherit;overflow=hidden;fillColor=none;top=0;left=0;bottom=0;right=0;pointerEvents=1;" parent="lL0XIrcGaY90vHGLS-17-16" vertex="1">
          <mxGeometry width="157" height="29" as="geometry">
            <mxRectangle width="157" height="29" as="alternateBounds" />
          </mxGeometry>
        </mxCell>
        <mxCell id="lL0XIrcGaY90vHGLS-17-18" value="" style="shape=tableRow;horizontal=0;startSize=0;swimlaneHead=0;swimlaneBody=0;strokeColor=inherit;top=0;left=0;bottom=0;right=0;collapsible=0;dropTarget=0;fillColor=none;points=[[0,0.5],[1,0.5]];portConstraint=eastwest;" parent="lL0XIrcGaY90vHGLS-17-13" vertex="1">
          <mxGeometry y="48" width="157" height="30" as="geometry" />
        </mxCell>
        <mxCell id="lL0XIrcGaY90vHGLS-17-19" value="&lt;font style=&quot;font-size: 11px;&quot;&gt;intracranial&amp;nbsp;&lt;/font&gt;&lt;div style=&quot;font-size: 11px;&quot;&gt;&lt;font style=&quot;font-size: 11px;&quot;&gt;(eg.: meningitis, abscess)&lt;/font&gt;&lt;/div&gt;" style="shape=partialRectangle;html=1;whiteSpace=wrap;connectable=0;strokeColor=inherit;overflow=hidden;fillColor=none;top=0;left=0;bottom=0;right=0;pointerEvents=1;" parent="lL0XIrcGaY90vHGLS-17-18" vertex="1">
          <mxGeometry width="157" height="30" as="geometry">
            <mxRectangle width="157" height="30" as="alternateBounds" />
          </mxGeometry>
        </mxCell>
        <mxCell id="lL0XIrcGaY90vHGLS-17-20" value="" style="shape=tableRow;horizontal=0;startSize=0;swimlaneHead=0;swimlaneBody=0;strokeColor=inherit;top=0;left=0;bottom=0;right=0;collapsible=0;dropTarget=0;fillColor=none;points=[[0,0.5],[1,0.5]];portConstraint=eastwest;" parent="lL0XIrcGaY90vHGLS-17-13" vertex="1">
          <mxGeometry y="78" width="157" height="38" as="geometry" />
        </mxCell>
        <mxCell id="lL0XIrcGaY90vHGLS-17-21" value="&lt;font style=&quot;font-size: 11px;&quot;&gt;soft tissue or (peri)osseous&amp;nbsp;&lt;/font&gt;&lt;div style=&quot;font-size: 11px;&quot;&gt;&lt;font style=&quot;font-size: 11px;&quot;&gt;(eg.: cellulitis, abscess)&lt;/font&gt;&lt;/div&gt;" style="shape=partialRectangle;html=1;whiteSpace=wrap;connectable=0;strokeColor=inherit;overflow=hidden;fillColor=none;top=0;left=0;bottom=0;right=0;pointerEvents=1;" parent="lL0XIrcGaY90vHGLS-17-20" vertex="1">
          <mxGeometry width="157" height="38" as="geometry">
            <mxRectangle width="157" height="38" as="alternateBounds" />
          </mxGeometry>
        </mxCell>
        <mxCell id="lL0XIrcGaY90vHGLS-17-25" value="" style="rounded=0;orthogonalLoop=1;jettySize=auto;html=1;exitX=1;exitY=1;exitDx=0;exitDy=0;strokeColor=none;" parent="1" target="6oquI3iziqroKtysEFZ_-95" edge="1">
          <mxGeometry relative="1" as="geometry">
            <mxPoint x="651" y="663" as="targetPoint" />
            <mxPoint x="761" y="481" as="sourcePoint" />
          </mxGeometry>
        </mxCell>
        <mxCell id="Pg--C747iEHJvBxBvvRA-2" style="edgeStyle=orthogonalEdgeStyle;rounded=0;orthogonalLoop=1;jettySize=auto;html=1;exitX=0.5;exitY=1;exitDx=0;exitDy=0;entryX=0.5;entryY=0;entryDx=0;entryDy=0;" parent="1" source="6oquI3iziqroKtysEFZ_-95" target="Pg--C747iEHJvBxBvvRA-1" edge="1">
          <mxGeometry relative="1" as="geometry" />
        </mxCell>
        <mxCell id="6oquI3iziqroKtysEFZ_-95" value="yes" style="rounded=1;whiteSpace=wrap;html=1;" parent="1" vertex="1">
          <mxGeometry x="740" y="430" width="50" height="30" as="geometry" />
        </mxCell>
        <mxCell id="lL0XIrcGaY90vHGLS-17-88" value="" style="shape=table;startSize=0;container=1;collapsible=0;childLayout=tableLayout;" parent="1" vertex="1">
          <mxGeometry x="613.5" y="4" width="232.5" height="100" as="geometry" />
        </mxCell>
        <mxCell id="lL0XIrcGaY90vHGLS-17-89" value="" style="shape=tableRow;horizontal=0;startSize=0;swimlaneHead=0;swimlaneBody=0;strokeColor=inherit;top=0;left=0;bottom=0;right=0;collapsible=0;dropTarget=0;fillColor=none;points=[[0,0.5],[1,0.5]];portConstraint=eastwest;" parent="lL0XIrcGaY90vHGLS-17-88" vertex="1">
          <mxGeometry width="232.5" height="33" as="geometry" />
        </mxCell>
        <mxCell id="lL0XIrcGaY90vHGLS-17-90" value="&lt;b&gt;Intranasal corticosteroids options&lt;/b&gt;&lt;div&gt;(&lt;span style=&quot;background-color: initial;&quot;&gt;1-2 sprays per nostril 12/12h for 2 weeks)&lt;/span&gt;&lt;/div&gt;" style="shape=partialRectangle;html=1;whiteSpace=wrap;connectable=0;strokeColor=inherit;overflow=hidden;fillColor=none;top=0;left=0;bottom=0;right=0;pointerEvents=1;" parent="lL0XIrcGaY90vHGLS-17-89" vertex="1">
          <mxGeometry width="233" height="33" as="geometry">
            <mxRectangle width="233" height="33" as="alternateBounds" />
          </mxGeometry>
        </mxCell>
        <mxCell id="lL0XIrcGaY90vHGLS-17-91" value="" style="shape=tableRow;horizontal=0;startSize=0;swimlaneHead=0;swimlaneBody=0;strokeColor=inherit;top=0;left=0;bottom=0;right=0;collapsible=0;dropTarget=0;fillColor=none;points=[[0,0.5],[1,0.5]];portConstraint=eastwest;" parent="lL0XIrcGaY90vHGLS-17-88" vertex="1">
          <mxGeometry y="33" width="232.5" height="23" as="geometry" />
        </mxCell>
        <mxCell id="lL0XIrcGaY90vHGLS-17-92" value="Budesonide 50mcg/spray&amp;nbsp;" style="shape=partialRectangle;html=1;whiteSpace=wrap;connectable=0;strokeColor=inherit;overflow=hidden;fillColor=none;top=0;left=0;bottom=0;right=0;pointerEvents=1;" parent="lL0XIrcGaY90vHGLS-17-91" vertex="1">
          <mxGeometry width="233" height="23" as="geometry">
            <mxRectangle width="233" height="23" as="alternateBounds" />
          </mxGeometry>
        </mxCell>
        <mxCell id="lL0XIrcGaY90vHGLS-17-93" value="" style="shape=tableRow;horizontal=0;startSize=0;swimlaneHead=0;swimlaneBody=0;strokeColor=inherit;top=0;left=0;bottom=0;right=0;collapsible=0;dropTarget=0;fillColor=none;points=[[0,0.5],[1,0.5]];portConstraint=eastwest;" parent="lL0XIrcGaY90vHGLS-17-88" vertex="1">
          <mxGeometry y="56" width="232.5" height="22" as="geometry" />
        </mxCell>
        <mxCell id="lL0XIrcGaY90vHGLS-17-94" value="Mometasone furoate 50mcg/spray&amp;nbsp;" style="shape=partialRectangle;html=1;whiteSpace=wrap;connectable=0;strokeColor=inherit;overflow=hidden;fillColor=none;top=0;left=0;bottom=0;right=0;pointerEvents=1;" parent="lL0XIrcGaY90vHGLS-17-93" vertex="1">
          <mxGeometry width="233" height="22" as="geometry">
            <mxRectangle width="233" height="22" as="alternateBounds" />
          </mxGeometry>
        </mxCell>
        <mxCell id="lL0XIrcGaY90vHGLS-17-95" value="" style="shape=tableRow;horizontal=0;startSize=0;swimlaneHead=0;swimlaneBody=0;strokeColor=inherit;top=0;left=0;bottom=0;right=0;collapsible=0;dropTarget=0;fillColor=none;points=[[0,0.5],[1,0.5]];portConstraint=eastwest;" parent="lL0XIrcGaY90vHGLS-17-88" vertex="1">
          <mxGeometry y="78" width="232.5" height="22" as="geometry" />
        </mxCell>
        <mxCell id="lL0XIrcGaY90vHGLS-17-96" value="Fluticasone furoate 27.5mcg/spray" style="shape=partialRectangle;html=1;whiteSpace=wrap;connectable=0;strokeColor=inherit;overflow=hidden;fillColor=none;top=0;left=0;bottom=0;right=0;pointerEvents=1;" parent="lL0XIrcGaY90vHGLS-17-95" vertex="1">
          <mxGeometry width="233" height="22" as="geometry">
            <mxRectangle width="233" height="22" as="alternateBounds" />
          </mxGeometry>
        </mxCell>
        <mxCell id="Pg--C747iEHJvBxBvvRA-3" style="edgeStyle=orthogonalEdgeStyle;rounded=0;orthogonalLoop=1;jettySize=auto;html=1;exitX=0.5;exitY=1;exitDx=0;exitDy=0;entryX=0.5;entryY=0;entryDx=0;entryDy=0;" parent="1" source="Pg--C747iEHJvBxBvvRA-1" target="l2N7j59_v2V8E63CawsU-1" edge="1">
          <mxGeometry relative="1" as="geometry" />
        </mxCell>
        <mxCell id="Pg--C747iEHJvBxBvvRA-1" value="Reassess in 7 days" style="rounded=0;whiteSpace=wrap;html=1;" parent="1" vertex="1">
          <mxGeometry x="705" y="480" width="120" height="30" as="geometry" />
        </mxCell>
        <mxCell id="zg62jBpR216m8CCVUuFQ-20" value="" style="shape=table;startSize=0;container=1;collapsible=0;childLayout=tableLayout;" parent="1" vertex="1">
          <mxGeometry x="195.29999999999998" y="4" width="202.9" height="106" as="geometry" />
        </mxCell>
        <mxCell id="zg62jBpR216m8CCVUuFQ-21" value="" style="shape=tableRow;horizontal=0;startSize=0;swimlaneHead=0;swimlaneBody=0;strokeColor=inherit;top=0;left=0;bottom=0;right=0;collapsible=0;dropTarget=0;fillColor=none;points=[[0,0.5],[1,0.5]];portConstraint=eastwest;" parent="zg62jBpR216m8CCVUuFQ-20" vertex="1">
          <mxGeometry width="202.9" height="31" as="geometry" />
        </mxCell>
        <mxCell id="zg62jBpR216m8CCVUuFQ-22" value="&lt;b&gt;&lt;font style=&quot;font-size: 10px;&quot;&gt;Signs/symptoms that raise&amp;nbsp;&lt;/font&gt;&lt;/b&gt;&lt;div&gt;&lt;b&gt;&lt;font style=&quot;font-size: 10px;&quot;&gt;complication suspicion: examples&lt;/font&gt;&lt;/b&gt;&lt;/div&gt;" style="shape=partialRectangle;html=1;whiteSpace=wrap;connectable=0;strokeColor=inherit;overflow=hidden;fillColor=none;top=0;left=0;bottom=0;right=0;pointerEvents=1;" parent="zg62jBpR216m8CCVUuFQ-21" vertex="1">
          <mxGeometry width="203" height="31" as="geometry">
            <mxRectangle width="203" height="31" as="alternateBounds" />
          </mxGeometry>
        </mxCell>
        <mxCell id="zg62jBpR216m8CCVUuFQ-23" value="" style="shape=tableRow;horizontal=0;startSize=0;swimlaneHead=0;swimlaneBody=0;strokeColor=inherit;top=0;left=0;bottom=0;right=0;collapsible=0;dropTarget=0;fillColor=none;points=[[0,0.5],[1,0.5]];portConstraint=eastwest;" parent="zg62jBpR216m8CCVUuFQ-20" vertex="1">
          <mxGeometry y="31" width="202.9" height="75" as="geometry" />
        </mxCell>
        <mxCell id="zg62jBpR216m8CCVUuFQ-24" value="&lt;font style=&quot;font-size: 10px;&quot;&gt;high/persistent fevers,&amp;nbsp;&lt;/font&gt;&lt;span style=&quot;background-color: initial; font-size: 10px;&quot;&gt;severe headache, altered mental status, meningeal signs, vision changes, periorbital phlogosis, abnormal extraocular movements, proptosis, cranial nerve palsies.&lt;/span&gt;" style="shape=partialRectangle;html=1;whiteSpace=wrap;connectable=0;strokeColor=inherit;overflow=hidden;fillColor=none;top=0;left=0;bottom=0;right=0;pointerEvents=1;" parent="zg62jBpR216m8CCVUuFQ-23" vertex="1">
          <mxGeometry width="203" height="75" as="geometry">
            <mxRectangle width="203" height="75" as="alternateBounds" />
          </mxGeometry>
        </mxCell>
        <mxCell id="zg62jBpR216m8CCVUuFQ-34" style="edgeStyle=orthogonalEdgeStyle;rounded=0;orthogonalLoop=1;jettySize=auto;html=1;exitX=1;exitY=0.5;exitDx=0;exitDy=0;entryX=0;entryY=0.396;entryDx=0;entryDy=0;entryPerimeter=0;" parent="1" source="6oquI3iziqroKtysEFZ_-85" target="6oquI3iziqroKtysEFZ_-99" edge="1">
          <mxGeometry relative="1" as="geometry" />
        </mxCell>
      </root>
    </mxGraphModel>
  </diagram>
</mxfile>
